<svg width="20" height="20" viewBox="0 0 24 24" fill="none"><path d="M12 15.5A3.5 3.5 0 0015.5 12 3.5 3.5 0 0012 8.5 3.5 3.5 0 008.5 12 3.5 3.5 0 0012 15.5z" stroke="#6B7A90" stroke-width="2"/><path d="M19.43 12.98c.04-.32.07-.64.07-.98s-.03-.66-.07-.98l2.11-1.65a.5.5 0 00.12-.64l-2-3.46a.5.5 0 00-.61-.22l-2.49 1a7.03 7.03 0 00-1.69-.98l-.38-2.65A.49.49 0 0014 2h-4a.49.49 0 00-.49.42l-.38 2.65c-.61.25-1.17.59-1.69.98l-2.49-1a.5.5 0 00-.61.22l-2 3.46a.49.49 0 00.12.64l2.11 1.65c-.04.32-.07.65-.07.98s.03.66.07.98l-2.11 1.65a.5.5 0 00-.12.64l2 3.46a.5.5 0 00.61.22l2.49-1c.52.39 1.08.73 1.69.98l.38 2.65c.05.24.26.42.49.42h4c.24 0 .44-.18.49-.42l.38-2.65c.61-.25 1.17-.59 1.69-.98l2.49 1a.5.5 0 00.61-.22l2-3.46a.49.49 0 00-.12-.64l-2.11-1.65z" stroke="#6B7A90" stroke-width="2"/></svg>
